<?xml version="1.0" standalone="no"?>
<!DOCTYPE svg PUBLIC "-//W3C//DTD SVG 20010904//EN"
 "http://www.w3.org/TR/2001/REC-SVG-20010904/DTD/svg10.dtd">
<svg version="1.0" xmlns="http://www.w3.org/2000/svg"
 width="100.000000pt" height="100.000000pt" viewBox="0 0 100.000000 100.000000"
 preserveAspectRatio="xMidYMid meet">
<metadata>
Created by potrace 1.14, written by Peter Selinger 2001-2017
</metadata>
<g transform="translate(0.000000,100.000000) scale(0.100000,-0.100000)"
fill="#000000" stroke="none">
<path d="M320 840 c0 -89 3 -120 13 -121 34 -2 62 -12 111 -39 74 -42 88 -75
83 -205 -3 -93 -6 -104 -36 -153 -19 -29 -32 -54 -30 -56 2 -2 38 -19 79 -38
50 -23 87 -48 107 -73 l31 -37 124 0 c67 1 131 1 141 1 16 1 17 23 17 316 l0
315 -106 105 -107 105 -213 0 -214 0 0 -120z m510 -15 l85 -85 -88 0 -87 0 0
85 c0 47 1 85 3 85 1 0 40 -38 87 -85z"/>
<path d="M271 667 c-60 -21 -76 -54 -78 -168 -2 -94 -1 -101 27 -147 16 -26
34 -57 39 -69 15 -34 82 -48 125 -28 19 9 37 24 40 33 3 9 17 37 32 62 22 38
27 59 30 133 5 112 -6 136 -80 171 -60 29 -84 31 -135 13z"/>
<path d="M160 192 c-79 -39 -118 -81 -116 -124 1 -23 3 -23 129 -26 l127 -3 0
24 c0 14 6 43 14 65 17 48 11 82 -15 82 -10 0 -21 5 -24 10 -10 17 -37 11
-115 -28z"/>
<path d="M383 210 c-37 -22 -40 -35 -18 -76 8 -16 15 -44 15 -61 l0 -33 124 0
c75 0 127 4 131 10 12 19 -6 69 -36 98 -26 25 -147 82 -174 82 -6 0 -25 -9
-42 -20z"/>
</g>
</svg>
